<svg xmlns="http://www.w3.org/2000/svg" width="500" height="500" viewBox="0 0 132.292 132.292"><path d="M8.467 0v16.669h24.606v16.404H8.467v8.467H41.54v-8.467h8.202V16.669h57.943v16.404h-41.54v8.467h-8.201v8.202H8.467v8.202h49.477v16.669h8.202v8.202h8.466V57.944h49.478v-8.202H74.612V41.54h41.275v-8.467h8.203V16.669h-8.203V8.467H16.67V0zm8.202 66.146v8.467H8.467v16.404h8.202v8.202h16.404v16.669h8.467v8.202h82.55v-8.202H49.742v-16.67h66.145v-8.201h8.203V74.613h-8.203v-8.467h-8.202v24.87H99.22V74.614h-8.202v-8.467h-8.202v24.87H49.742v-24.87H41.54v8.467h-8.467v16.404H24.87V66.146z" fill="#f5f2ed" fill-rule="evenodd" paint-order="stroke fill markers"/><path d="M0 66.146V0h8.467v16.669h24.606v16.404H8.467v8.467H41.54v-8.467h8.202V16.669h57.943v16.404h-41.54v8.467h-8.201v8.202H8.467v8.202h49.477v16.669h8.202v8.202h8.467V57.944h49.477v-8.202H74.613V41.54h41.275v-8.467h8.202V16.669h-8.202V8.467h-99.22V0h115.624v132.292H0zm124.09 49.741H49.741V99.22h66.146v-8.202h8.202V74.613h-8.202v-8.467h-8.203v24.87H99.22V74.613h-8.202v-8.466h-8.202v24.87H49.742v-24.87H41.54v8.467h-8.467v16.404H24.87V66.146h-8.202v8.466H8.467v16.405h8.202v8.202h16.404v16.668h8.467v8.203h82.55z" fill="#2b2523"/></svg>