<svg xmlns="http://www.w3.org/2000/svg" width="84.799" height="244.451" viewBox="0 0 22.437 64.678"><path d="M.016 0c-.055 2.225.007 4.454.545 6.615.357 3.046.987 6.044 1.473 9.075.198 5.05.15 10.104.292 15.158.037 4.983.064 9.97.271 14.95.065 1.267-.127 2.577.326 3.796.826-.64.262-2.37.393-3.387-.248-5.66-.31-11.324-.357-16.99a195.24 195.24 0 0 1-.12-9.48c-.11-2.85-.147-5.696-.244-8.542.176-1.281-.287-2.81.218-3.964.1.668.615 1.749.643 3.115.104 2.99.175 5.986.717 8.922.198 7.667.247 15.35.442 23.018.06 1.066-.163 2.34.411 3.245.731-4.505-.298-9.079-.033-13.615-.144-5.527-.154-11.054-.097-16.583.04-2.338-.27-4.741.293-7.024.675-1.62.325 2.346.387 3.018.061 4.536.028 9.076.166 13.609.695 1.754.503-1.85.413-2.706a403.189 403.189 0 0 1 .04-15.407c.196-2.413.39.805.29 1.722.05 5.635.034 11.278.264 16.902.876 1.9.277-3.085.349-3.946a502.01 502.01 0 0 1-.001-14.386c.755-2.06.581 2.059.57 3.05.076 5.282.062 10.583.27 15.858.438 1.82.601-1.58.392-2.14-.128-5.79-.13-11.578-.063-17.364.468-.197.77 2.08.676 2.979-.014 5.174.055 10.345.21 15.518.078 3.315.106 6.652.208 9.945-.116 1.706.777 1.451.566.06-.207-4.748-.25-9.519-.331-14.28-.067-4.457-.072-8.928.011-13.386.096-1.348.535-.314.443.442-.006 5.931-.047 11.86.114 17.786.012 1.98.29 3.995-.192 5.93-.415 1.045.729 2.888.605.884.146-1.673.44-3.366.111-5.052-.213-6.179-.052-12.353-.037-18.529-.153-1.901.838-2.045.689-.243-.047 6.16.038 12.322.012 18.482-.345 1.08-.112 3.995.512 1.646.109-2.532-.112-5.092-.056-7.637.003-4.61.018-9.223.182-13.83.675-.975.492 1.937.525 2.658-.105 7.54.17 15.073.117 22.608.605 1.474.567-1.448.539-2.126-.17-3.405.018-6.828-.119-10.24.007-4.26-.016-8.531.094-12.785.64-1.626.36.646.443 1.449.081 8.837-.142 17.676.096 26.515.083 1.196-.284 3.202.186 3.793.773-1.197.372-3.08.309-4.594-.011-4.83-.156-9.663.022-14.492.046-4.296-.224-8.622.143-12.9.072-2.519 1.472-1.44 1.025.566-.192 6.389-.14 12.778-.002 19.162.782.519.376-2.353.386-3.299a389.48 389.48 0 0 1 .19-17.653c.236 1.463.023 3.276.117 4.867.112 2.91-.025 5.826.048 8.73.887.333.34-2.393.454-3.353.069-3.262-.207-6.545.091-9.782.382-.67.133 1.399.204 1.93a333.704 333.704 0 0 0-.025 14.591c.07 2.56.02 5.125.066 7.678.602.312.653-1.782.598-2.607-.296-3.797-.2-7.629-.206-11.438.11-3.243-.103-6.543.247-9.738.345 2.183.039 4.435.128 6.641-.232 7.112.006 14.226.104 21.336.44 1.524-.494 3.129.157 4.629.706-1.846.243-3.973.382-5.943-.217-4.361-.251-8.738-.225-13.108.196-4.044-.05-8.101.192-12.143.797.849.852 3.042.981 4.472.59 6.025.42 12.085.726 18.126.232 1.88-.05 3.723-.22 5.593.192 4.947.044 9.918-.449 14.846-.121 3.075-.327 6.147-.415 9.228-.094 1.416-.094 2.911.474 4.227.775-.865.561-2.725.532-4.01-.202-2.67.241-5.341.382-8.007.384-4.531.424-9.112.872-13.647-.144-5.598-.669-11.186-.689-16.79-.428-2.958.279-5.89.271-8.845.08-2.547.04-5.113.69-7.592.261-1.945.84-3.833 1.007-5.787H.017zM20.1 6.791c.452.866.118 2.024.222 3.008-.014 1.115-.095 5.807-.252 2.532-.025-1.8-.294-3.623-.124-5.416l.072-.102.082-.022z"/></svg>